<svg width="100" height="100" viewBox="0 0 100 100" fill="none" xmlns="http://www.w3.org/2000/svg">
<path fill-rule="evenodd" clip-rule="evenodd" d="M12.5 84.375C12.5 85.2038 12.8292 85.9987 13.4153 86.5847C14.0013 87.1708 14.7962 87.5 15.625 87.5H43.125C43.9538 87.5 44.7487 87.1708 45.3347 86.5847C45.9208 85.9987 46.25 85.2038 46.25 84.375C46.25 83.5462 45.9208 82.7514 45.3347 82.1653C44.7487 81.5793 43.9538 81.25 43.125 81.25H23.1687L86.5875 17.8375C87.1743 17.2508 87.5039 16.4549 87.5039 15.625C87.5039 14.7952 87.1743 13.9993 86.5875 13.4125C86.0007 12.8257 85.2048 12.4961 84.375 12.4961C83.5452 12.4961 82.7493 12.8257 82.1625 13.4125L18.75 76.8313V56.875C18.75 56.0462 18.4208 55.2514 17.8347 54.6653C17.2487 54.0793 16.4538 53.75 15.625 53.75C14.7962 53.75 14.0013 54.0793 13.4153 54.6653C12.8292 55.2514 12.5 56.0462 12.5 56.875V84.375Z" fill="#0C70F5"/>
</svg>
