<svg width="16" height="16" viewBox="0 0 16 16" fill="none" xmlns="http://www.w3.org/2000/svg">
<path fill-rule="evenodd" clip-rule="evenodd" d="M12 8.00014C12 8.13275 11.9474 8.25993 11.8536 8.3537C11.7598 8.44747 11.6326 8.50014 11.5 8.50014H5.70704L7.85404 10.6461C7.90053 10.6926 7.9374 10.7478 7.96256 10.8086C7.98772 10.8693 8.00067 10.9344 8.00067 11.0001C8.00067 11.0659 7.98772 11.131 7.96256 11.1917C7.9374 11.2525 7.90053 11.3077 7.85404 11.3541C7.80755 11.4006 7.75236 11.4375 7.69162 11.4627C7.63088 11.4878 7.56578 11.5008 7.50004 11.5008C7.4343 11.5008 7.3692 11.4878 7.30846 11.4627C7.24772 11.4375 7.19253 11.4006 7.14604 11.3541L4.14604 8.35414C4.09948 8.3077 4.06253 8.25252 4.03733 8.19178C4.01212 8.13103 3.99915 8.06591 3.99915 8.00014C3.99915 7.93438 4.01212 7.86925 4.03733 7.80851C4.06253 7.74776 4.09948 7.69259 4.14604 7.64614L7.14604 4.64614C7.23993 4.55226 7.36726 4.49951 7.50004 4.49951C7.63282 4.49951 7.76015 4.55226 7.85404 4.64614C7.94793 4.74003 8.00067 4.86737 8.00067 5.00014C8.00067 5.13292 7.94793 5.26026 7.85404 5.35414L5.70704 7.50014H11.5C11.6326 7.50014 11.7598 7.55282 11.8536 7.64659C11.9474 7.74036 12 7.86754 12 8.00014Z" fill="#555555"/>
</svg>
