<svg width="100" height="100" viewBox="0 0 100 100" fill="none" xmlns="http://www.w3.org/2000/svg">
<path fill-rule="evenodd" clip-rule="evenodd" d="M87.5 84.375C87.5 85.2038 87.1707 85.9987 86.5847 86.5847C85.9986 87.1708 85.2038 87.5 84.375 87.5H56.875C56.0462 87.5 55.2513 87.1708 54.6653 86.5847C54.0792 85.9987 53.75 85.2038 53.75 84.375C53.75 83.5462 54.0792 82.7514 54.6653 82.1653C55.2513 81.5793 56.0462 81.25 56.875 81.25H76.8312L13.4125 17.8375C13.1219 17.547 12.8915 17.2021 12.7342 16.8224C12.577 16.4428 12.496 16.0359 12.496 15.625C12.496 15.2141 12.577 14.8073 12.7342 14.4276C12.8915 14.048 13.1219 13.7031 13.4125 13.4125C13.703 13.122 14.048 12.8915 14.4276 12.7343C14.8072 12.577 15.2141 12.4961 15.625 12.4961C16.0359 12.4961 16.4428 12.577 16.8224 12.7343C17.202 12.8915 17.5469 13.122 17.8375 13.4125L81.25 76.8313V56.875C81.25 56.0462 81.5792 55.2514 82.1653 54.6653C82.7513 54.0793 83.5462 53.75 84.375 53.75C85.2038 53.75 85.9986 54.0793 86.5847 54.6653C87.1707 55.2514 87.5 56.0462 87.5 56.875V84.375Z" fill="#AAAAAA"/>
</svg>
