<svg width="20" height="20" viewBox="0 0 20 20" fill="none" xmlns="http://www.w3.org/2000/svg">
<path d="M5.83332 2.1875V5.3125C5.83332 5.83027 5.41359 6.25 4.89582 6.25H0.9375C0.419727 6.25 0 5.83027 0 5.3125V2.1875C0 1.66973 0.419727 1.25 0.9375 1.25H4.89582C5.41359 1.25 5.83332 1.66973 5.83332 2.1875ZM12.9167 11.5625V8.4375C12.9167 7.91973 12.497 7.5 11.9792 7.5H8.02082C7.50305 7.5 7.08332 7.91973 7.08332 8.4375V11.5625C7.08332 12.0803 7.50305 12.5 8.02082 12.5H11.9791C12.497 12.5 12.9167 12.0803 12.9167 11.5625ZM14.1667 2.1875V5.3125C14.1667 5.83027 14.5864 6.25 15.1042 6.25H19.0625C19.5803 6.25 20 5.83027 20 5.3125V2.1875C20 1.66973 19.5803 1.25 19.0625 1.25H15.1042C14.5864 1.25 14.1667 1.66973 14.1667 2.1875ZM12.9167 5.3125V2.1875C12.9167 1.66973 12.497 1.25 11.9792 1.25H8.02082C7.50305 1.25 7.08332 1.66973 7.08332 2.1875V5.3125C7.08332 5.83027 7.50305 6.25 8.02082 6.25H11.9791C12.497 6.25 12.9167 5.83027 12.9167 5.3125ZM4.89582 7.5H0.9375C0.419727 7.5 0 7.91973 0 8.4375V11.5625C0 12.0803 0.419727 12.5 0.9375 12.5H4.89582C5.41359 12.5 5.83332 12.0803 5.83332 11.5625V8.4375C5.83332 7.91973 5.41359 7.5 4.89582 7.5ZM0 14.6875V17.8125C0 18.3303 0.419727 18.75 0.9375 18.75H4.89582C5.41359 18.75 5.83332 18.3303 5.83332 17.8125V14.6875C5.83332 14.1697 5.41359 13.75 4.89582 13.75H0.9375C0.419727 13.75 0 14.1697 0 14.6875ZM15.1042 12.5H19.0625C19.5803 12.5 20 12.0803 20 11.5625V8.4375C20 7.91973 19.5803 7.5 19.0625 7.5H15.1042C14.5864 7.5 14.1667 7.91973 14.1667 8.4375V11.5625C14.1667 12.0803 14.5864 12.5 15.1042 12.5ZM15.1042 18.75H19.0625C19.5803 18.75 20 18.3303 20 17.8125V14.6875C20 14.1697 19.5803 13.75 19.0625 13.75H15.1042C14.5864 13.75 14.1667 14.1697 14.1667 14.6875V17.8125C14.1667 18.3303 14.5864 18.75 15.1042 18.75ZM7.08332 14.6875V17.8125C7.08332 18.3303 7.50305 18.75 8.02082 18.75H11.9791C12.4969 18.75 12.9166 18.3303 12.9166 17.8125V14.6875C12.9166 14.1697 12.4969 13.75 11.9791 13.75H8.02082C7.50305 13.75 7.08332 14.1697 7.08332 14.6875Z" fill="#0C70F5"/>
</svg>
