<svg width="16" height="16" viewBox="0 0 16 16" fill="none" xmlns="http://www.w3.org/2000/svg">
<g clip-path="url(#clip0_250_2)">
<path d="M15.8541 0.14615C15.9233 0.215482 15.9706 0.303624 15.9902 0.399627C16.0097 0.49563 16.0006 0.595263 15.9641 0.68615L10.1451 15.2331C10.0938 15.3613 10.0081 15.4727 9.89759 15.5553C9.78703 15.6379 9.65583 15.6884 9.51844 15.7012C9.38104 15.714 9.24277 15.6887 9.11885 15.628C8.99492 15.5673 8.89015 15.4736 8.81605 15.3572L5.63805 10.3622L0.643054 7.18415C0.526372 7.11013 0.432405 7.00532 0.371524 6.88128C0.310642 6.75723 0.285212 6.61878 0.298039 6.4812C0.310866 6.34362 0.361452 6.21226 0.444215 6.10161C0.526978 5.99096 0.6387 5.90532 0.767054 5.85415L15.3141 0.0371498C15.4049 0.000562027 15.5046 -0.0085177 15.6006 0.0110385C15.6966 0.0305947 15.7847 0.0779249 15.8541 0.14715V0.14615ZM6.63605 10.0701L9.39705 14.4081L14.1301 2.57615L6.63605 10.0701ZM13.4231 1.86915L1.59105 6.60215L5.93005 9.36215L13.4231 1.86915Z" fill="#555555"/>
</g>
<defs>
<clipPath id="clip0_250_2">
<rect width="16" height="16" fill="white"/>
</clipPath>
</defs>
</svg>
